<svg xmlns="http://www.w3.org/2000/svg" viewBox="0 0 48 48" fill="none">
  <!-- Chakra wheel: modernization / interconnected services -->
  <circle cx="24" cy="24" r="20" stroke="#3b82f6" stroke-width="2"/>
  <circle cx="24" cy="24" r="4" fill="#3b82f6"/>
  <!-- Spokes representing bounded contexts -->
  <line x1="24" y1="8" x2="24" y2="20" stroke="#3b82f6" stroke-width="2"/>
  <line x1="24" y1="28" x2="24" y2="40" stroke="#3b82f6" stroke-width="2"/>
  <line x1="8" y1="24" x2="20" y2="24" stroke="#3b82f6" stroke-width="2"/>
  <line x1="28" y1="24" x2="40" y2="24" stroke="#3b82f6" stroke-width="2"/>
  <line x1="13.5" y1="13.5" x2="20.8" y2="20.8" stroke="#10b981" stroke-width="2"/>
  <line x1="27.2" y1="27.2" x2="34.5" y2="34.5" stroke="#10b981" stroke-width="2"/>
  <line x1="34.5" y1="13.5" x2="27.2" y2="20.8" stroke="#10b981" stroke-width="2"/>
  <line x1="20.8" y1="27.2" x2="13.5" y2="34.5" stroke="#10b981" stroke-width="2"/>
  <!-- Nodes at spoke ends -->
  <circle cx="24" cy="8" r="2.5" fill="#10b981"/>
  <circle cx="24" cy="40" r="2.5" fill="#10b981"/>
  <circle cx="8" cy="24" r="2.5" fill="#10b981"/>
  <circle cx="40" cy="24" r="2.5" fill="#10b981"/>
  <circle cx="13.5" cy="13.5" r="2" fill="#f59e0b"/>
  <circle cx="34.5" cy="34.5" r="2" fill="#f59e0b"/>
  <circle cx="34.5" cy="13.5" r="2" fill="#f59e0b"/>
  <circle cx="13.5" cy="34.5" r="2" fill="#f59e0b"/>
</svg>
